<?xml version="1.0" standalone="no"?>
<!DOCTYPE svg PUBLIC "-//W3C//DTD SVG 20010904//EN"
 "http://www.w3.org/TR/2001/REC-SVG-20010904/DTD/svg10.dtd">
<svg version="1.0" xmlns="http://www.w3.org/2000/svg"
 width="481.000000pt" height="481.000000pt" viewBox="0 0 481.000000 481.000000"
 preserveAspectRatio="xMidYMid meet">
<metadata>
Created by potrace 1.14, written by Peter Selinger 2001-2017
</metadata>
<g transform="translate(0.000000,481.000000) scale(0.100000,-0.100000)"
fill="#000000" stroke="none">
<path d="M2124 2874 c-162 -33 -290 -137 -347 -281 -23 -59 -29 -96 -29 -181
0 -134 42 -239 132 -331 97 -99 227 -144 390 -136 194 9 329 111 397 299 19
54 22 71 27 150 l4 66 -230 0 -229 0 2 -83 1 -83 110 1 c60 0 114 -2 119 -5
13 -9 -43 -93 -79 -118 -39 -28 -121 -45 -183 -39 -146 16 -233 121 -232 282
0 124 40 198 134 250 46 25 65 29 129 29 87 1 125 -15 183 -77 l37 -41 95 49
94 49 -31 38 c-59 74 -148 134 -236 158 -64 17 -188 19 -258 4z"/>
<path d="M3148 2873 c-222 -56 -363 -236 -357 -458 3 -102 12 -145 50 -222
131 -270 544 -337 764 -125 78 75 116 144 135 243 41 212 -36 402 -204 503
-33 20 -84 43 -115 52 -71 21 -204 24 -273 7z m239 -212 c50 -26 79 -54 103
-100 70 -138 21 -323 -103 -387 -37 -19 -114 -28 -170 -20 -134 20 -222 167
-192 321 20 107 67 165 157 196 65 22 151 18 205 -10z"/>
<path d="M4192 2869 c-204 -52 -333 -203 -349 -406 -21 -281 154 -492 429
-519 231 -22 433 102 503 310 60 179 21 368 -102 492 -54 55 -137 104 -211
123 -75 21 -190 20 -270 0z m265 -219 c58 -38 89 -82 107 -153 35 -136 -24
-276 -139 -328 -47 -22 -143 -24 -197 -5 -188 67 -216 379 -43 486 48 30 86
38 162 34 49 -2 71 -8 110 -34z"/>
<path d="M6 2861 c-1 -4 -2 -204 -2 -446 l1 -440 113 -3 112 -3 0 196 0 196
142 -178 c78 -98 149 -186 159 -196 14 -15 32 -17 144 -15 l128 3 -169 210
c-93 116 -177 219 -186 229 -24 27 -23 35 13 76 27 31 82 94 142 164 10 11 31
35 45 51 89 100 132 154 125 158 -4 2 -61 3 -126 3 -98 -1 -121 -4 -131 -18
-10 -13 -83 -100 -121 -142 -15 -16 -118 -137 -141 -164 -19 -23 -19 -22 -24
150 l-5 173 -108 1 c-60 0 -109 -2 -111 -5z"/>
<path d="M902 2861 c-5 -3 -8 -159 -8 -346 l2 -340 26 -56 c59 -129 186 -192
368 -183 98 5 174 37 235 98 84 84 88 108 89 494 1 178 -1 327 -4 331 -3 4
-51 7 -107 7 -87 1 -103 -2 -104 -15 0 -9 -2 -153 -3 -321 -1 -168 -6 -314
-11 -325 -31 -70 -141 -99 -212 -55 -60 36 -63 58 -63 404 l0 312 -100 0 c-55
0 -104 -2 -108 -5z"/>
</g>
</svg>
